<?xml version="1.0" encoding="utf-8"?>
<!-- Generator: Adobe Illustrator 15.0.0, SVG Export Plug-In . SVG Version: 6.00 Build 0)  -->
<!DOCTYPE svg PUBLIC "-//W3C//DTD SVG 1.1//EN" "http://www.w3.org/Graphics/SVG/1.1/DTD/svg11.dtd">
<svg version="1.1" id="Layer_1" xmlns="http://www.w3.org/2000/svg" xmlns:xlink="http://www.w3.org/1999/xlink" x="0px" y="0px"
	 width="695.614px" height="170.747px" viewBox="0 0 695.614 170.747" enable-background="new 0 0 695.614 170.747"
	 xml:space="preserve">
<g>
	<defs>
		<path id="SVGID_1_" d="M168.585,106.226v0.006c0.199,0.818,0.511,1.992,0.733,2.807c5.507,1.568,11.006,0.275,16.348-0.987
			c8.912-2.112,17.128-5.676,24.671-10.299c0.427-0.259,0.854-0.526,1.275-0.802c1.92-1.224,3.77-2.533,5.53-3.92
			c-9.532-35.816,16.477-45.279,19.161-35.935c-1.251-9.518-8.765-13.98-18.388-13.979
			C195.877,43.119,162.787,66.526,168.585,106.226"/>
	</defs>
	<clipPath id="SVGID_2_">
		<use xlink:href="#SVGID_1_"  overflow="visible"/>
	</clipPath>
	
		<linearGradient id="SVGID_3_" gradientUnits="userSpaceOnUse" x1="-736.1392" y1="804.8604" x2="-735.1392" y2="804.8604" gradientTransform="matrix(46.4231 124.055 124.055 -46.4231 -65478.9492 128748.1719)">
		<stop  offset="0" style="stop-color:#23287C"/>
		<stop  offset="0.0016" style="stop-color:#23287C"/>
		<stop  offset="0.4841" style="stop-color:#00AEEF"/>
		<stop  offset="0.748" style="stop-color:#00BCF2"/>
		<stop  offset="1" style="stop-color:#97DAF8"/>
	</linearGradient>
	<polygon clip-path="url(#SVGID_2_)" fill="url(#SVGID_3_)" points="227.273,18.984 258.457,102.316 171.817,134.738 
		140.634,51.406 	"/>
</g>
<g>
	<defs>
		<path id="SVGID_4_" d="M206.919,159.13c1.434,0.791,3.228,1.673,4.732,2.363l1.684,0.634c7.323,1.688,13.8-3.017,18.851-6.272
			c8.504-5.48,17.697-16.384,25.267-23.309c-2.949-0.012-7.068-0.286-9.877-0.813C234.525,142.335,222.197,150.727,206.919,159.13"
			/>
	</defs>
	<clipPath id="SVGID_5_">
		<use xlink:href="#SVGID_4_"  overflow="visible"/>
	</clipPath>
	
		<linearGradient id="SVGID_6_" gradientUnits="userSpaceOnUse" x1="-730.1694" y1="795.2139" x2="-729.1694" y2="795.2139" gradientTransform="matrix(18.816 11.2896 11.2896 -18.816 4993.3696 23353.8672)">
		<stop  offset="0" style="stop-color:#1B3281"/>
		<stop  offset="1" style="stop-color:#00A5E6"/>
	</linearGradient>
	<polygon clip-path="url(#SVGID_5_)" fill="url(#SVGID_6_)" points="220.296,109.438 271.607,140.226 244.077,186.11 
		192.765,155.323 	"/>
</g>
<g>
	<defs>
		<path id="SVGID_7_" d="M242.726,0c-3.149,0.135-6.261,0.45-9.316,0.954c-0.006-0.006-0.006-0.006-0.012,0
			c-8.187,1.328-15.992,3.933-23.208,7.601c-19.14,9.737-34.121,26.977-40.949,47.838c-2.949,9.023-4.377,18.725-3.956,28.79
			c0.305,7.268,1.656,14.324,3.3,21.049c-5.989-57.433,71.642-81.619,67.382-42.126c0,0.011,0,0.023-0.012,0.035
			c-2.118,9.381-7.074,17.508-13.874,24.221c-1.662,1.645-3.435,3.2-5.302,4.67c-1.761,1.387-3.61,2.696-5.529,3.92
			c-0.422,0.275-0.849,0.543-1.277,0.802c-7.542,4.623-16.126,8.04-25.039,10.151c-5.342,1.266-10.573,2.348-16.079,0.779
			c-0.2-0.059-0.399-0.117-0.598-0.182c-3.768-1.199-7.461-2.975-11.959-7.984c-5.01-5.486-16.31-21.842-16.31-21.842
			c-2.124-2.563-3.751-5.277-5.889-7.782c-34.842-40.814-80.68-34.183-81.353-2.567c-0.022,1.041-0.012,3.591-0.012,3.591
			c0-4.52,3.426-6.516,6.494-5.537c2.968,0.948,5.346,4.329,7.626,7.165c4.928,6.126,13.937,17.339,21.657,27.016
			c0.018,0.023,0.04,0.054,0.059,0.076c28.925,34.478,47.403,67.22,82.705,67.84c29.061,0.511,64.162-25.25,76.126-36.674
			c52.607-50.231,43.894-87.535,42.806-92.012C284.711,17.192,266.179,0,242.896,0H242.726z"/>
	</defs>
	<clipPath id="SVGID_8_">
		<use xlink:href="#SVGID_7_"  overflow="visible"/>
	</clipPath>
	
		<linearGradient id="SVGID_9_" gradientUnits="userSpaceOnUse" x1="-738.6475" y1="804.4131" x2="-737.6479" y2="804.4131" gradientTransform="matrix(236.3107 -153.462 -153.462 -236.3107 298074.7813 76885.6016)">
		<stop  offset="0" style="stop-color:#0088CE"/>
		<stop  offset="0.0016" style="stop-color:#0088CE"/>
		<stop  offset="0.4938" style="stop-color:#00B6F1"/>
		<stop  offset="0.5708" style="stop-color:#97DAF8"/>
		<stop  offset="0.6847" style="stop-color:#2AC5F4"/>
		<stop  offset="1" style="stop-color:#3EC7F4"/>
	</linearGradient>
	<polygon clip-path="url(#SVGID_8_)" fill="url(#SVGID_9_)" points="-24.464,50.127 226.656,-112.953 377.197,118.86 
		126.077,281.939 	"/>
</g>
<g>
	<defs>
		<path id="SVGID_10_" d="M257.294,132.608h-0.007c-7.171,5.207-14.641,15.361-25.604,22.907
			c-5.632,3.877-13.154,8.691-20.449,5.791c10.135,4.681,21.716,7.319,34.712,7.156c6.332-0.083,12.488-0.883,18.404-2.329
			c0.012,0,0.024-0.006,0.029-0.006c3.447-0.954,7.584-2.475,11.704-5.271c11.223-7.625,16.565-17.625,18.432-22.043
			c2.306-5.461,3.119-16.679-0.193-21.453c-0.309-0.111-0.62-0.218-0.936-0.305c-1.625-0.484-3.355-0.73-5.184-0.73
			C279.724,116.327,269.145,121.592,257.294,132.608"/>
	</defs>
	<clipPath id="SVGID_11_">
		<use xlink:href="#SVGID_10_"  overflow="visible"/>
	</clipPath>
	
		<linearGradient id="SVGID_12_" gradientUnits="userSpaceOnUse" x1="-740.4282" y1="802.6094" x2="-739.4282" y2="802.6094" gradientTransform="matrix(55.0409 -56.8756 -56.8756 -55.0409 86632.7422 2231.6895)">
		<stop  offset="0" style="stop-color:#00AEEF"/>
		<stop  offset="0.2263" style="stop-color:#00B8F1"/>
		<stop  offset="0.5406" style="stop-color:#87D6F8"/>
		<stop  offset="0.7489" style="stop-color:#36C6F4"/>
		<stop  offset="1" style="stop-color:#4EC9F5"/>
	</linearGradient>
	<polygon clip-path="url(#SVGID_11_)" fill="url(#SVGID_12_)" points="185.098,143.333 253.018,73.149 323.771,141.618 
		255.85,211.803 	"/>
</g>
<g>
	<defs>
		<path id="SVGID_13_" d="M52.746,68.643c-0.022,1.045-0.012,3.607-0.012,3.607c0-4.541,3.442-6.546,6.524-5.562
			c2.982,0.952,5.371,4.348,7.661,7.197c4.951,6.155,14.002,17.42,21.758,27.142c0.017,0.023,0.039,0.053,0.058,0.075
			c28.543,34.023,46.961,66.36,81.217,68.089l26.022-63.926c-3.396,1.245-6.884,2.299-10.428,3.139
			c-5.368,1.271-10.623,2.358-16.155,0.782c-0.2-0.059-0.4-0.118-0.6-0.182c-3.786-1.205-7.495-2.988-12.015-8.022
			c-5.034-5.511-16.384-21.942-16.384-21.942c-2.134-2.576-3.77-5.301-5.918-7.818C117.462,51.292,97.84,42.623,82.087,42.623
			C65.427,42.623,53.093,52.317,52.746,68.643"/>
	</defs>
	<clipPath id="SVGID_14_">
		<use xlink:href="#SVGID_13_"  overflow="visible"/>
	</clipPath>
	<defs>
		<filter id="Adobe_OpacityMaskFilter" filterUnits="userSpaceOnUse" x="-10.16" y="-28.551" width="269.019" height="268.914">
			<feColorMatrix  type="matrix" values="1 0 0 0 0  0 1 0 0 0  0 0 1 0 0  0 0 0 1 0"/>
		</filter>
	</defs>
	<mask maskUnits="userSpaceOnUse" x="-10.16" y="-28.551" width="269.019" height="268.914" id="SVGID_15_">
		<g filter="url(#Adobe_OpacityMaskFilter)">
			
				<linearGradient id="SVGID_16_" gradientUnits="userSpaceOnUse" x1="-736.4854" y1="804.085" x2="-735.4857" y2="804.085" gradientTransform="matrix(89.9575 100.6778 100.6778 -89.9575 -14628.0537 146529.4688)">
				<stop  offset="0" style="stop-color:#FFFFFF"/>
				<stop  offset="0.0016" style="stop-color:#FFFFFF"/>
				<stop  offset="0.7542" style="stop-color:#000000"/>
				<stop  offset="1" style="stop-color:#000000"/>
			</linearGradient>
			<polygon clip-path="url(#SVGID_14_)" fill="url(#SVGID_16_)" points="132.379,-28.551 258.859,113.001 116.319,240.363 
				-10.16,98.812 			"/>
		</g>
	</mask>
	
		<linearGradient id="SVGID_17_" gradientUnits="userSpaceOnUse" x1="-736.4854" y1="804.085" x2="-735.4857" y2="804.085" gradientTransform="matrix(89.9575 100.6778 100.6778 -89.9575 -14628.0537 146529.4688)">
		<stop  offset="0" style="stop-color:#23287C"/>
		<stop  offset="0.0016" style="stop-color:#23287C"/>
		<stop  offset="0.7542" style="stop-color:#00AEEF"/>
		<stop  offset="1" style="stop-color:#00AEEF"/>
	</linearGradient>
	<polygon clip-path="url(#SVGID_14_)" mask="url(#SVGID_15_)" fill="url(#SVGID_17_)" points="132.379,-28.551 258.859,113.001 
		116.319,240.363 -10.16,98.812 	"/>
</g>
<g>
	<defs>
		<path id="SVGID_18_" d="M144.937,85.692c-1.083-1.611-2.178-3.172-3.28-4.682L144.937,85.692z M52.734,0.006
			C23.418,1.393,0.069,25.858,0.069,55.825v110.989c0,0.911,0.743,1.655,1.662,1.655h9.989c16.004,0,29.867-9.164,36.62-22.534
			c0.439-0.854,0.837-1.727,1.211-2.617c2.048-4.879,3.183-10.24,3.183-15.862V68.991c1.519-32.133,50.757-40.224,88.922,12.019
			l-7.533-10.751l-32.498-45.073l-0.006,0.005C90.723,9.743,74.713-0.058,55.368-0.058C54.484-0.058,53.606-0.035,52.734,0.006"/>
	</defs>
	<clipPath id="SVGID_19_">
		<use xlink:href="#SVGID_18_"  overflow="visible"/>
	</clipPath>
	
		<linearGradient id="SVGID_20_" gradientUnits="userSpaceOnUse" x1="-739.0698" y1="803.8799" x2="-738.0698" y2="803.8799" gradientTransform="matrix(135.9409 -114.0679 -114.0679 -135.9409 192162.0938 25124.8789)">
		<stop  offset="0" style="stop-color:#85C441"/>
		<stop  offset="0.0032" style="stop-color:#85C441"/>
		<stop  offset="0.5878" style="stop-color:#C2D83A"/>
		<stop  offset="0.7189" style="stop-color:#FFFCD5"/>
		<stop  offset="0.8396" style="stop-color:#DCE236"/>
		<stop  offset="1" style="stop-color:#FFF32E"/>
	</linearGradient>
	<polygon clip-path="url(#SVGID_19_)" fill="url(#SVGID_20_)" points="-82.914,69.573 85.081,-71.391 227.919,98.837 
		59.925,239.802 	"/>
</g>
<path fill="#1072BA" d="M425.968,142.544l-8.326-1.918c-2.614-0.591-4.529-1.473-5.695-2.623c-1.064-1.05-1.582-2.444-1.582-4.265
	c0-2.144,0.807-3.692,2.539-4.879c1.907-1.302,4.732-1.963,8.398-1.963c2.521,0,4.861,0.431,6.952,1.28
	c1.547,0.629,3.093,1.506,4.593,2.604c0.891,0.652,2.018,0.899,3.106,0.675c1.049-0.216,1.956-0.857,2.489-1.765l0.084-0.142
	c0.874-1.487,0.59-3.342-0.689-4.51c-1.753-1.598-3.93-2.886-6.471-3.828c-3.061-1.137-6.447-1.713-10.064-1.713
	c-5.67,0-10.288,1.323-13.725,3.93c-3.592,2.726-5.413,6.379-5.413,10.857c0,3.301,1.325,6.26,3.939,8.797
	c2.496,2.422,5.789,4.086,9.773,4.942l8.189,1.817c2.979,0.719,5.124,1.641,6.374,2.742c1.08,0.955,1.605,2.223,1.605,3.877
	c0,2.116-0.805,3.611-2.534,4.707c-1.947,1.235-4.937,1.86-8.886,1.86c-3.207,0-5.991-0.382-8.275-1.138
	c-1.732-0.575-3.529-1.504-5.337-2.764c-0.892-0.619-2.017-0.838-3.08-0.601c-1.034,0.231-1.924,0.881-2.442,1.778v0.002
	c-0.891,1.548-0.511,3.502,0.903,4.645c4.569,3.694,10.605,5.567,17.94,5.567c5.842,0,10.607-1.281,14.163-3.808
	c3.751-2.664,5.653-6.203,5.653-10.522c0-3.49-1.267-6.456-3.765-8.813C434.021,145.145,430.508,143.517,425.968,142.544"/>
<path fill="#1072BA" d="M473.548,142.544l-8.326-1.918c-2.615-0.591-4.53-1.473-5.695-2.623c-1.065-1.05-1.582-2.444-1.582-4.265
	c0-2.144,0.807-3.692,2.54-4.879c1.906-1.302,4.731-1.963,8.397-1.963c2.521,0,4.86,0.431,6.951,1.28
	c1.547,0.629,3.093,1.506,4.593,2.604c0.891,0.652,2.019,0.899,3.107,0.675c1.048-0.216,1.954-0.857,2.488-1.765l0.083-0.142
	c0.876-1.485,0.592-3.34-0.688-4.508c-1.753-1.6-3.93-2.888-6.471-3.83c-3.061-1.137-6.446-1.713-10.064-1.713
	c-5.671,0-10.289,1.323-13.727,3.93c-3.591,2.726-5.412,6.379-5.412,10.857c0,3.299,1.326,6.26,3.939,8.797
	c2.496,2.422,5.789,4.086,9.773,4.942l8.189,1.817c2.979,0.719,5.124,1.641,6.374,2.742c1.081,0.955,1.605,2.223,1.605,3.877
	c0,2.117-0.806,3.612-2.534,4.707c-1.947,1.235-4.938,1.86-8.886,1.86c-3.206,0-5.991-0.382-8.274-1.138
	c-1.734-0.574-3.529-1.504-5.338-2.764c-0.892-0.619-2.017-0.838-3.08-0.601c-1.034,0.231-1.924,0.881-2.441,1.778v0.002
	c-0.892,1.548-0.512,3.502,0.903,4.645c4.569,3.694,10.605,5.567,17.939,5.567c5.842,0,10.607-1.281,14.163-3.808
	c3.751-2.664,5.653-6.203,5.653-10.522c0-3.491-1.267-6.456-3.764-8.813C481.603,145.146,478.088,143.518,473.548,142.544"/>
<path fill="#1072BA" d="M573.52,119.499c-4.228,0-8.039,0.922-11.329,2.737c-1.593,0.882-3.001,1.966-4.195,3.232
	c-0.023,0.012-0.103-0.003-0.1,0.034l-0.123-1.576c-0.148-1.868-1.774-3.332-3.702-3.332c-1.078,0-2.101,0.451-2.806,1.24
	c-0.672,0.75-0.994,1.748-0.884,2.737c0.344,3.087,0.518,6.601,0.518,10.444v31.257c0,1.989,1.665,3.606,3.713,3.606h0.196
	c2.046,0,3.712-1.617,3.712-3.606v-24.778c0-4.57,1.349-8.078,4.123-10.724c2.801-2.668,6.483-3.966,11.263-3.966
	c4.027,0,6.944,0.939,8.671,2.794c1.761,1.894,2.654,5.065,2.654,9.432v27.242c0,1.989,1.665,3.606,3.712,3.606h0.293
	c2.047,0,3.712-1.617,3.712-3.606v-27.606C592.947,126.128,586.229,119.499,573.52,119.499"/>
<path fill="#1072BA" d="M626.804,126.806c2.267,0,4.443,0.416,6.471,1.234c1.598,0.646,3.342,1.615,5.183,2.877
	c0.896,0.617,2.021,0.832,3.09,0.597c1.039-0.229,1.938-0.877,2.511-1.851c0.925-1.571,0.558-3.555-0.87-4.717
	c-1.85-1.504-4.054-2.744-6.551-3.686c-3.096-1.168-6.403-1.762-9.833-1.762c-4.758,0-9.007,1.084-12.629,3.22
	c-3.643,2.147-6.498,5.223-8.488,9.143c-1.96,3.864-2.954,8.334-2.954,13.284c0,4.957,0.996,9.398,2.96,13.204
	c1.991,3.856,4.829,6.885,8.438,8.998c3.588,2.104,7.82,3.172,12.578,3.172c3.301,0,6.558-0.592,9.68-1.759
	c2.532-0.945,4.803-2.21,6.745-3.762c1.473-1.174,1.842-3.186,0.877-4.777c-0.534-0.882-1.433-1.518-2.462-1.739
	c-1.057-0.229-2.173-0.012-3.061,0.593c-1.854,1.265-3.614,2.223-5.233,2.846c-2.065,0.798-4.268,1.201-6.546,1.201
	c-5.056,0-8.883-1.506-11.705-4.605c-2.828-3.104-4.262-7.571-4.262-13.279c0-5.779,1.456-10.361,4.329-13.619
	C617.926,128.378,621.764,126.806,626.804,126.806"/>
<path fill="#1072BA" d="M694.613,144.952c0.668-0.687,1.024-1.584,1-2.529c-0.021-0.901-0.059-2.104-0.114-2.719
	c-0.517-5.707-2.401-10.371-5.601-13.863c-3.859-4.209-9.208-6.342-15.899-6.342c-4.691,0-8.922,1.082-12.577,3.217
	c-3.673,2.146-6.56,5.201-8.58,9.082c-2,3.836-3.013,8.297-3.013,13.258c0,7.824,2.276,14.092,6.767,18.625
	c4.266,4.306,10.022,6.601,17.112,6.82c0.356,0.012,0.709,0.018,1.063,0.018c3.69,0,7.276-0.602,10.674-1.79
	c2.929-1.024,5.457-2.376,7.517-4.019c1.392-1.108,1.753-3.016,0.857-4.537l-0.12-0.204c-0.521-0.886-1.409-1.522-2.436-1.745
	c-1.054-0.229-2.161-0.008-3.039,0.607c-1.867,1.307-3.769,2.31-5.655,2.982c-2.431,0.868-5.088,1.309-7.896,1.309
	c-5.451,0-9.488-1.496-12.345-4.572c-2.216-2.385-3.59-5.666-4.085-9.748c-0.038-0.322-0.098-1.059-0.159-2.74h33.871
	C692.956,146.062,693.925,145.656,694.613,144.952 M658.728,138.646c0.864-3.471,2.46-6.277,4.745-8.342h0.001
	c2.736-2.477,6.181-3.68,10.525-3.68c4.238,0,7.453,1.152,9.827,3.524c2.025,2.026,3.333,4.89,3.889,8.517L658.728,138.646z"/>
<path fill="#1072BA" d="M535.378,126.07c-3.86-4.208-9.209-6.343-15.9-6.343c-4.69,0-8.921,1.083-12.577,3.216
	c-3.673,2.147-6.56,5.203-8.579,9.085c-1.999,3.836-3.013,8.296-3.013,13.255c0,7.826,2.277,14.093,6.768,18.625
	c4.265,4.306,10.022,6.601,17.112,6.821c0.356,0.012,0.713,0.018,1.069,0.018c3.685,0,7.269-0.601,10.667-1.789
	c2.928-1.024,5.457-2.377,7.517-4.019c1.392-1.11,1.753-3.017,0.861-4.532l-0.125-0.211c-0.521-0.886-1.409-1.521-2.436-1.744
	c-1.051-0.229-2.161-0.008-3.039,0.607c-1.866,1.307-3.77,2.311-5.654,2.982c-2.43,0.869-5.087,1.309-7.896,1.309
	c-5.451,0-9.489-1.496-12.345-4.573c-2.217-2.385-3.591-5.665-4.084-9.747c-0.057-0.465-0.112-1.436-0.161-2.74h33.873
	c1,0,1.969-0.404,2.656-1.109c0.669-0.688,1.024-1.585,1.001-2.53c-0.034-1.351-0.071-2.239-0.114-2.718
	C540.462,134.224,538.577,129.56,535.378,126.07 M504.206,138.874c0.864-3.47,2.461-6.275,4.746-8.342h-0.001
	c2.74-2.476,6.183-3.68,10.526-3.68c4.239,0,7.454,1.152,9.828,3.525c2.025,2.025,3.332,4.889,3.889,8.515L504.206,138.874z"/>
<path fill="#1072BA" d="M387.901,126.07c-3.86-4.208-9.209-6.343-15.9-6.343c-4.691,0-8.921,1.083-12.577,3.216
	c-3.673,2.146-6.559,5.202-8.579,9.085c-1.999,3.836-3.013,8.296-3.013,13.255c0,7.826,2.277,14.093,6.768,18.625
	c4.265,4.306,10.022,6.601,17.112,6.821c0.356,0.012,0.713,0.018,1.069,0.018c3.685,0,7.269-0.601,10.667-1.789
	c2.928-1.024,5.457-2.377,7.516-4.019c1.393-1.11,1.754-3.017,0.861-4.532l-0.124-0.211c-0.521-0.886-1.41-1.521-2.437-1.744
	c-1.05-0.229-2.16-0.008-3.038,0.607c-1.866,1.307-3.77,2.311-5.654,2.982c-2.431,0.869-5.087,1.309-7.896,1.309
	c-5.451,0-9.489-1.496-12.345-4.573c-2.217-2.385-3.591-5.665-4.084-9.747c-0.057-0.465-0.113-1.436-0.161-2.74h33.871
	c1.002,0,1.971-0.404,2.658-1.109c0.669-0.688,1.024-1.585,1.001-2.53c-0.034-1.351-0.071-2.239-0.114-2.718
	C392.985,134.224,391.1,129.56,387.901,126.07 M356.729,138.874c0.864-3.47,2.461-6.275,4.746-8.342h-0.001
	c2.74-2.476,6.183-3.68,10.526-3.68c4.239,0,7.454,1.152,9.828,3.525c2.025,2.025,3.332,4.889,3.889,8.515L356.729,138.874z"/>
<path fill="#1072BA" d="M400.681,34.901c-3.742,0-7.096,0.803-9.967,2.386c-1.885,1.04-3.465,2.373-4.696,3.959
	c-0.34,0.44-0.9,0.674-1.483,0.657c-0.584-0.027-1.107-0.318-1.402-0.78c-2.637-4.128-7.273-6.222-13.784-6.222
	c-3.615,0-6.808,0.851-9.49,2.526c-1.175,0.737-2.23,1.62-3.138,2.628c-0.471,0.522-1.196,0.701-1.895,0.463
	c-0.678-0.229-1.131-0.787-1.184-1.454l-0.104-1.316c-0.078-0.983-0.953-1.752-1.994-1.752c-0.592,0-1.149,0.243-1.53,0.669
	c-0.353,0.395-0.514,0.894-0.457,1.405c0.351,3.159,0.528,6.736,0.528,10.634v31.257c0,1.044,0.897,1.894,1.999,1.894h0.194
	c1.104,0,2.001-0.85,2.001-1.894V55.184c0-4.996,1.389-9.024,4.127-11.969c2.736-2.942,6.516-4.435,11.231-4.435
	c4.068,0,7.064,1.122,8.906,3.336c1.843,2.22,2.778,5.788,2.778,10.604v27.242c0,1.044,0.896,1.894,1.999,1.894h0.292
	c1.102,0,1.999-0.85,1.999-1.894V55.184c0-4.996,1.389-9.024,4.128-11.969c2.736-2.942,6.482-4.435,11.134-4.435
	c4.006,0,6.97,1.122,8.811,3.336c1.843,2.22,2.777,5.788,2.777,10.604v27.242c0,1.044,0.896,1.894,2,1.894h0.291
	c1.102,0,1.999-0.85,1.999-1.894V52.354C416.752,40.774,411.345,34.901,400.681,34.901"/>
<path fill="#1072BA" d="M523.015,17.688c-1.183,0-2.145,0.911-2.145,2.031v18.664c0,0.724-0.416,1.334-1.112,1.633
	c-0.739,0.318-1.589,0.171-2.162-0.376c-0.913-0.864-1.95-1.626-3.083-2.261c-2.938-1.644-6.487-2.478-10.55-2.478
	c-4.321,0-8.165,0.973-11.421,2.891c-3.26,1.918-5.813,4.697-7.588,8.261c-1.773,3.556-2.672,7.733-2.672,12.415
	c0,4.744,0.915,8.983,2.72,12.6c1.806,3.625,4.376,6.464,7.636,8.442c3.258,1.98,7.067,2.984,11.325,2.984
	c4.063,0,7.612-0.85,10.55-2.525c1.133-0.646,2.168-1.415,3.076-2.285c0.574-0.548,1.428-0.696,2.166-0.381
	c0.698,0.298,1.115,0.91,1.115,1.635v0.885c0,1.12,0.962,2.032,2.145,2.032c1.184,0,2.146-0.912,2.146-2.032V19.719
	C525.16,18.599,524.198,17.688,523.015,17.688 M520.87,58.651c0,6.269-1.488,11.204-4.423,14.665
	c-2.929,3.455-7.129,5.207-12.484,5.207c-5.293,0-9.509-1.783-12.533-5.298c-3.03-3.521-4.566-8.486-4.566-14.757
	c0-6.208,1.536-11.079,4.565-14.479c3.024-3.396,7.274-5.118,12.631-5.118c5.291,0,9.459,1.737,12.389,5.162
	C519.382,47.465,520.87,52.382,520.87,58.651"/>
<path fill="#1072BA" d="M544.048,35.996c-1.156,0-2.097,0.891-2.097,1.985v41.888c0,1.095,0.94,1.986,2.097,1.986
	c1.155,0,2.096-0.891,2.096-1.986V37.981C546.144,36.887,545.203,35.996,544.048,35.996"/>
<path fill="#1072BA" d="M600.478,35.996c-1.185,0-2.146,0.912-2.146,2.031v0.354c0,0.724-0.416,1.334-1.111,1.633
	c-0.74,0.32-1.589,0.172-2.164-0.375c-0.908-0.863-1.945-1.623-3.082-2.26c-2.938-1.644-6.487-2.478-10.55-2.478
	c-4.255,0-8.065,1.003-11.324,2.983c-3.262,1.979-5.831,4.805-7.636,8.395c-1.806,3.59-2.72,7.813-2.72,12.554
	c0,4.742,0.898,8.951,2.672,12.509c1.775,3.563,4.327,6.342,7.588,8.261c3.258,1.918,7.099,2.891,11.42,2.891
	c4.063,0,7.613-0.85,10.55-2.525c1.133-0.646,2.168-1.414,3.076-2.283c0.573-0.548,1.423-0.696,2.167-0.381
	c0.697,0.299,1.114,0.909,1.114,1.635v0.883c0,1.12,0.962,2.032,2.146,2.032c1.183,0,2.145-0.912,2.145-2.032V38.027
	C602.622,36.908,601.66,35.996,600.478,35.996 M598.331,58.651c0,6.269-1.487,11.203-4.421,14.665
	c-2.931,3.455-7.099,5.207-12.39,5.207c-5.356,0-9.605-1.737-12.631-5.164c-3.029-3.43-4.564-8.317-4.564-14.526
	c0-6.269,1.52-11.219,4.517-14.71c2.995-3.485,7.229-5.252,12.582-5.252c5.354,0,9.554,1.722,12.487,5.117
	C596.845,47.391,598.331,52.323,598.331,58.651"/>
<path fill="#1072BA" d="M467.074,40.916c-3.521-3.84-8.446-5.786-14.639-5.786c-4.382,0-8.322,1.003-11.712,2.98
	c-3.389,1.981-6.055,4.807-7.924,8.398c-1.87,3.589-2.817,7.783-2.817,12.464c0,7.358,2.109,13.219,6.271,17.419
	c3.946,3.984,9.312,6.108,15.948,6.314c0.338,0.011,0.674,0.016,1.009,0.016c3.497,0,6.894-0.568,10.108-1.693
	c2.746-0.961,5.104-2.219,7.015-3.74c0.718-0.573,0.906-1.551,0.45-2.326l-0.122-0.208c-0.283-0.482-0.753-0.815-1.322-0.94
	c-0.586-0.127-1.205-0.005-1.692,0.337c-1.994,1.396-4.033,2.469-6.062,3.192c-2.617,0.935-5.468,1.408-8.473,1.408
	c-5.871,0-10.446-1.722-13.601-5.119c-2.468-2.657-3.991-6.26-4.529-10.708c-0.081-0.673-0.14-2.003-0.175-3
	c-0.015-0.42,0.143-0.822,0.442-1.133c0.323-0.335,0.786-0.527,1.268-0.527h33.878c0.542,0,1.063-0.216,1.431-0.593
	c0.343-0.352,0.525-0.81,0.513-1.29c-0.031-1.295-0.067-2.172-0.107-2.607C471.748,48.448,470.014,44.123,467.074,40.916
	 M467.606,53.814c-0.268,0.305-0.66,0.48-1.078,0.48h-29.359c-0.561,0-1.075-0.245-1.412-0.671
	c-0.297-0.378-0.404-0.855-0.295-1.309c0.938-3.883,2.722-7.033,5.301-9.364c3.025-2.737,6.951-4.124,11.673-4.124
	c4.651,0,8.366,1.354,11.04,4.028c2.383,2.381,3.876,5.729,4.441,9.95C467.966,53.17,467.855,53.529,467.606,53.814"/>
<path fill="#1072BA" d="M544.144,17.699c-1.795,0-3.256,1.381-3.256,3.08c0,1.698,1.461,3.081,3.256,3.081
	c1.797,0,3.258-1.383,3.258-3.081C547.401,19.08,545.94,17.699,544.144,17.699"/>
</svg>
